#tb 0: 1/25
0,          0,          0,        1,    59820, db20782033a18141a292da3f1a1c1782
0,          1,          1,        1,    60040, c2f90e3de0c305ab8aac2530e3cd0e41
0,          2,          2,        1,    61072, 97b0337a4185ef9d8e2533649860ad9a
0,          3,          3,        1,    59680, 876d24900ef83e7958c9a1e54c82f330
0,          4,          4,        1,    58620, 7732915d2a50f38951d46e36dcd49236
0,          5,          5,        1,    60276, 343ef35f003da592451cab1ffbf158aa
0,          6,          6,        1,    60504, 6823f1ef02f27719bb602911aa8caab5
0,          7,          7,        1,    59916, 5f9ce306dc27d84d1af6d378b385c715
0,          8,          8,        1,    60104, bac83cb16811318ad602ff391fdc94c7
0,          9,          9,        1,    60352, bbd85ee4ccaad1b30b74d9edd1916291
0,         10,         10,        1,    60324, 950230449f907a0615139fe2e1033a47
0,         11,         11,        1,    60312, 8ba4355ecf4d738524bd331b98e87af7
0,         12,         12,        1,    59196, 1efcac9ee097b0e027cc4e9d9d61037c
0,         13,         13,        1,    59684, 9815ca06f7a99fb648f8f2856441517f
0,         14,         14,        1,    61028, e4d684a1106cf78cd19ed87bd7ff7bab
0,         15,         15,        1,    61116, 60f20615fb500d1baf9b1d07aa0f62f4
0,         16,         16,        1,    60096, 35bc9f5e7f8a34c4221840f556d99df8
0,         17,         17,        1,    59900, c8f756e698eeff9b55d83319f96865ce
0,         18,         18,        1,    59424, 3ac4bb99ded21039ec65b1959c27347e
0,         19,         19,        1,    59100, ff576160ae91bd8466f6d33b5750cce9
0,         20,         20,        1,    58768, 86ed0e0c1a0f23ee6f3beabd0cc5691d
0,         21,         21,        1,    58604, c0674d3c5973ff503e736a984326b42d
0,         22,         22,        1,    58984, ec47ecc40d18b5e5216572db7aca4399
0,         23,         23,        1,    59724, 119c234e452012e4475d09698e859dbc
0,         24,         24,        1,    60688, 6720b72beefcdaa5355a68b763b8c7ca
0,         25,         25,        1,    59768, 2dc4e643f97f9123842836df17a165ce
0,         26,         26,        1,    59116, 3660544cdd5c0424578aa2cf6edc93d5
0,         27,         27,        1,    58776, 465d3d35793fd088644746fc2b941a3c
0,         28,         28,        1,    56948, c452face29e359c118cb206b8a99330e
0,         29,         29,        1,    56984, d8c15040ca27d8cbf5e0f4a9464de289
0,         30,         30,        1,    58172, 930839ebaa292a9f3348da3ba58a8c1f
0,         31,         31,        1,    59008, bb9d062bf494bc1d4a0056dd8790bb25
0,         32,         32,        1,    59568, e3f0f969063c614f7fefbc0269c4c029
0,         33,         33,        1,    61276, f2e98cab7a320a9748c943910d0eda1d
0,         34,         34,        1,    60056, 6875b10061cb1c303a18f186d65247ed
0,         35,         35,        1,    59272, ad3f45ed83560479904c6395f857c95b
0,         36,         36,        1,    58592, eca4f8faa40a737f56f6e492d98845c1
0,         37,         37,        1,    58764, fa68a3723ba5b965532768b41dc73b60
0,         38,         38,        1,    58300, 741a2ae174d721e3f3c0d13e54132095
0,         39,         39,        1,    58260, 3546ddc2620a4c9fa415c0252a5eb9a4
0,         40,         40,        1,    57324, f11c6053a5448e9b4830ef4fe833e5de
0,         41,         41,        1,    58988, 6ae00a0b48f5ecdafcfd958684a21bcb
0,         42,         42,        1,    58828, 6239ee212ca7decde8ad4cb304f0f786
0,         43,         43,        1,    58736, 279226528c101b94f4e458151e7f5383
0,         44,         44,        1,    58160, 2e8427fd4f232a7798488dfbbbc93db0
0,         45,         45,        1,    56796, fab0929df1bfa6d4f09d962defaa58e7
0,         46,         46,        1,    55932, 71da16ee5673bdbc5b69f01da23725d3
0,         47,         47,        1,    56368, 20a7d362adb0f920f792106d034630fe
0,         48,         48,        1,    56424, ba44ca273348efefafb5e73df81e26e9
0,         49,         49,        1,    55508, e6df309da7552a2676e82f1f4644a694
